<svg xmlns="http://www.w3.org/2000/svg" width="53.455" height="69.345" viewBox="0 0 53.455 69.345">
  <g id="Group_5146" data-name="Group 5146" transform="translate(-659 -1181.328)">
    <path id="Path_4806" data-name="Path 4806" d="M49.649,45.589a33.865,33.865,0,0,0-3.975,1.876,20.455,20.455,0,0,0-2.155,1.217,31.464,31.464,0,0,0-5.8,5.024,20.505,20.505,0,0,0-4.476,8.182v.056a21.867,21.867,0,0,0-.6,7.4C14.517,50.613,14.081,26.152,26.377,11.47,43.121-8.543,66.282.957,70.312,14.766,73.9,26.913,69.207,37.63,49.649,45.589" transform="translate(641.038 1181.328)" fill="#c0051d"/>
    <text id="New" transform="translate(670 1209)" fill="#fff" font-size="15" font-family="Montserrat-Bold, Montserrat" font-weight="700" letter-spacing="-0.025em"><tspan x="0" y="0">New</tspan></text>
  </g>
</svg>
